PathFileType	4	(X/Y/Z)	c:/Users/goper/Files/vsCode/490R/osim_files/A04/A04_SSWS_04.trc
DataRate	CameraRate	NumFrames	NumMarkers	Units                	OrigDataRate	OrigDataStartFrame	OrigNumFrames
120.00	120.00	4	36	mm	120.0	424	1692
                Frame#	Time	LPSIS			LASIS			LTH1			LTH2			LTH3			LTH4			LLFE			LMFE			LSH1			LSH2			LSH3			LSH4			LLMAL			LMMAL			LCAL			LMTP5			LTOE			LMTP1			RPSIS			RASIS			RTH1			RTH2			RTH3			RTH4			RLFE			RMFE			RSH1			RSH2			RSH3			RSH4			RLMAL			RMMAL			RCAL			RMTP1			RTOE			RMTP5		
		X1	Y1	Z1	X2	Y2	Z2	X3	Y3	Z3	X4	Y4	Z4	X5	Y5	Z5	X6	Y6	Z6	X7	Y7	Z7	X8	Y8	Z8	X9	Y9	Z9	X10	Y10	Z10	X11	Y11	Z11	X12	Y12	Z12	X13	Y13	Z13	X14	Y14	Z14	X15	Y15	Z15	X16	Y16	Z16	X17	Y17	Z17	X18	Y18	Z18	X19	Y19	Z19	X20	Y20	Z20	X21	Y21	Z21	X22	Y22	Z22	X23	Y23	Z23	X24	Y24	Z24	X25	Y25	Z25	X26	Y26	Z26	X27	Y27	Z27	X28	Y28	Z28	X29	Y29	Z29	X30	Y30	Z30	X31	Y31	Z31	X32	Y32	Z32	X33	Y33	Z33	X34	Y34	Z34	X35	Y35	Z35	X36	Y36	Z36

424	3.52500	957.23950	1015.12952	369.97543	730.61597	971.12372	446.11493	743.32660	631.12299	465.70032	724.53809	591.80737	467.01440	688.19263	655.21283	468.49329	673.92682	611.38959	468.19058	674.17957	510.75534	456.65250	649.61755	519.30048	319.19162	670.57025	403.40225	456.56482	649.78174	366.39349	454.69302	612.87860	427.30536	449.77332	600.94354	385.83115	447.09219	564.25684	102.02602	413.07782	535.26978	109.50487	332.04407	615.19934	56.68137	353.30157	420.02744	69.45638	460.86996	371.13901	89.95909	403.45282	380.69412	74.49285	357.59778	961.91113	1005.07880	263.53943	741.69867	969.86322	159.15399	951.53198	712.10657	131.56149	961.15717	671.59027	131.64136	893.59418	693.28680	118.38744	912.34747	650.15021	123.78061	963.05212	518.55560	146.16899	947.98297	511.02240	265.12811	1123.91235	363.86240	154.58875	1143.33008	320.95706	160.59709	1071.43750	331.90347	148.25232	1099.18042	293.41483	152.59200	1220.22961	141.41536	153.59195	1187.95874	133.03926	285.86588	1303.23254	116.98577	231.91461	1095.10327	50.48353	263.64520	1068.76001	68.59166	214.74892	1108.37195	51.40596	140.20021
425	3.53333	946.27057	1014.96112	371.08530	719.47632	970.12311	446.21436	733.04156	630.63263	469.63303	714.24817	590.98431	470.21771	677.55420	654.54675	472.79132	663.85608	610.79401	472.11349	664.36688	511.12067	461.48746	639.63165	520.31750	324.20358	662.73767	403.82782	460.40402	642.54803	366.24094	458.12457	604.27667	426.33850	452.81876	593.45190	384.99274	450.90396	562.45496	101.25914	413.65796	532.74646	108.17890	332.48169	613.73083	56.73160	353.52539	418.94272	66.46831	461.44034	368.68588	87.59903	404.16382	379.57962	71.58868	358.27917	950.62543	1004.06049	264.64468	730.36389	968.66919	160.00455	937.66364	709.44983	132.65421	947.09003	668.96655	132.24648	879.67499	691.14618	119.06895	898.25208	647.87219	124.03719	947.24872	514.93994	145.99011	932.64856	507.76834	265.22702	1112.42065	364.62750	154.95470	1133.26245	322.28998	161.02628	1060.94519	331.13086	148.44833	1089.92444	293.56152	152.92018	1216.41467	145.01819	154.20844	1183.36389	136.09077	286.69736	1299.10242	122.82998	233.23514	1093.47510	50.51450	263.74417	1066.96777	67.78262	214.72389	1107.37939	51.47828	140.41711
426	3.54167	935.84912	1015.51923	371.86292	709.06049	969.74615	446.41299	723.37439	630.92108	473.71771	704.76355	591.20709	474.08578	667.49097	654.54651	477.67163	654.33875	610.73529	476.78351	654.68359	511.68729	466.36011	629.22290	521.74475	329.21112	655.15503	404.34259	464.13339	635.55475	366.31812	461.57150	596.47882	425.99188	457.53494	586.10968	384.19333	454.64261	560.59784	100.94097	414.19757	530.80109	107.58153	333.20938	613.24957	57.65618	353.76575	417.72488	63.75047	461.92432	366.45926	83.73033	404.44873	378.17715	68.66963	358.88431	939.34711	1003.29321	265.56094	719.03406	967.65570	161.14389	923.56763	706.81299	133.14537	931.89648	665.81866	132.62660	864.74878	688.70319	119.70137	882.77747	645.15503	124.37088	929.85077	510.89191	145.89343	916.04297	504.15030	265.21573	1099.85938	365.47058	155.13477	1121.83472	323.67902	162.58983	1049.56934	330.49213	148.45120	1079.80676	293.87210	153.02327	1210.66370	150.60873	156.03110	1178.07593	139.73930	287.45007	1295.11450	130.43697	234.55878	1092.78333	51.57346	264.76553	1064.89795	67.24445	214.29234	1106.64771	51.72667	140.45522
427	3.55000	925.80688	1016.48114	372.42795	699.68475	970.85358	447.44122	713.67828	631.77740	477.86188	696.18494	592.33478	478.46841	658.24152	655.24103	482.55667	645.58032	611.33282	482.16129	644.97821	512.49713	471.07730	618.88239	523.48853	334.00848	647.67981	405.14932	467.72421	628.80609	366.62439	464.83752	588.65259	425.66394	461.47296	579.08282	383.68149	458.23102	560.08478	100.67333	414.39841	530.60730	107.68776	333.52747	612.93274	57.71374	353.92316	417.38086	63.20424	461.89240	366.49927	83.39860	405.21277	377.68887	67.93256	358.98947	928.86859	1003.17493	266.05994	707.83649	966.91168	162.52426	907.16064	702.69867	133.95331	915.59692	662.17480	132.84756	850.21362	686.77863	118.61523	866.25287	642.18115	124.57487	911.01837	506.69745	145.75250	898.35950	500.32828	264.97327	1086.23718	366.61765	154.88657	1109.55054	325.86707	162.80293	1037.16736	329.96841	148.36868	1069.13464	294.74271	152.72011	1204.97510	156.32884	156.78809	1170.46118	144.39670	288.18845	1289.83032	139.04158	235.92854	1090.53845	51.85126	264.87766	1062.88000	67.06990	213.22626	1105.19751	52.01195	140.77502
